<svg width="90" height="90" viewBox="0 0 90 90" fill="none" xmlns="http://www.w3.org/2000/svg">
<g clip-path="url(#clip0_144_375)">
<path d="M41.5702 62.1495C41.1188 62.1521 40.6713 62.0656 40.2534 61.8949C39.8355 61.7243 39.4554 61.4728 39.1349 61.1549L25.4154 47.4354C24.7696 46.7895 24.4067 45.9135 24.4067 45.0001C24.4067 44.0868 24.7696 43.2108 25.4154 42.5649C26.0613 41.9191 26.9373 41.5562 27.8506 41.5562C28.764 41.5562 29.64 41.9191 30.2859 42.5649L41.5702 53.8835L63.1441 32.2753C63.79 31.6294 64.6659 31.2666 65.5793 31.2666C66.4927 31.2666 67.3687 31.6294 68.0145 32.2753C68.6604 32.9212 69.0232 33.7971 69.0232 34.7105C69.0232 35.6239 68.6604 36.4999 68.0145 37.1457L44.0054 61.1549C43.6849 61.4728 43.3048 61.7243 42.8869 61.8949C42.469 62.0656 42.0216 62.1521 41.5702 62.1495Z" fill="#FFC581"/>
<path d="M45.0001 89.5885C36.1813 89.5885 27.5606 86.9734 20.2281 82.074C12.8955 77.1745 7.18052 70.2108 3.80573 62.0633C0.430941 53.9158 -0.452059 44.9506 1.2684 36.3013C2.98885 27.652 7.23548 19.7071 13.4713 13.4713C19.7071 7.23548 27.652 2.98885 36.3013 1.2684C44.9506 -0.452059 53.9158 0.430941 62.0633 3.80573C70.2108 7.18052 77.1745 12.8955 82.074 20.2281C86.9734 27.5606 89.5885 36.1813 89.5885 45.0001C89.5885 56.8256 84.8908 68.1669 76.5288 76.5288C68.1669 84.8908 56.8256 89.5885 45.0001 89.5885ZM45.0001 7.2714C37.538 7.2714 30.2436 9.48414 24.0391 13.6298C17.8347 17.7755 12.9989 23.6679 10.1433 30.5619C7.28773 37.4559 6.54057 45.0419 7.99634 52.3606C9.45211 59.6792 13.0454 66.4018 18.3219 71.6782C23.5983 76.9547 30.3209 80.548 37.6396 82.0038C44.9582 83.4595 52.5442 82.7124 59.4382 79.8568C66.3322 77.0012 72.2246 72.1654 76.3703 65.961C80.516 59.7565 82.7287 52.4621 82.7287 45.0001C82.7287 34.9938 78.7537 25.3974 71.6782 18.3219C64.6028 11.2464 55.0063 7.2714 45.0001 7.2714Z" fill="#FFC581"/>
</g>
<defs>
<clipPath id="clip0_144_375">
<rect width="90" height="90" fill="white"/>
</clipPath>
</defs>
</svg>
