<svg width="90" height="90" viewBox="0 0 90 90" fill="none" xmlns="http://www.w3.org/2000/svg">
<g clip-path="url(#clip0_144_366)">
<path d="M45 90C36.0999 90 27.3996 87.3608 19.9994 82.4161C12.5991 77.4715 6.83138 70.4434 3.42544 62.2208C0.0194978 53.9981 -0.871652 44.9501 0.864683 36.221C2.60102 27.4918 6.88685 19.4736 13.1802 13.1802C19.4736 6.88685 27.4918 2.60102 36.221 0.864683C44.9501 -0.871652 53.9981 0.0194978 62.2208 3.42544C70.4434 6.83138 77.4715 12.5991 82.4161 19.9994C87.3608 27.3996 90 36.0999 90 45C90 56.9348 85.259 68.3807 76.8198 76.8198C68.3807 85.259 56.9348 90 45 90ZM45 6.9231C37.4691 6.9231 30.1073 9.15627 23.8456 13.3402C17.5839 17.5242 12.7035 23.471 9.82153 30.4286C6.93958 37.3863 6.18553 45.0423 7.65473 52.4285C9.12394 59.8147 12.7504 66.5993 18.0756 71.9245C23.4007 77.2496 30.1854 80.8761 37.5716 82.3453C44.9578 83.8145 52.6138 83.0605 59.5714 80.1785C66.5291 77.2966 72.4759 72.4161 76.6598 66.1544C80.8438 59.8927 83.0769 52.5309 83.0769 45C83.0769 34.9014 79.0653 25.2164 71.9245 18.0756C64.7837 10.9348 55.0986 6.9231 45 6.9231Z" fill="#FFC581"/>
<path d="M64.0384 67.5C63.5828 67.5027 63.1312 67.4154 62.7095 67.2431C62.2877 67.0708 61.9041 66.817 61.5807 66.4962L42.5422 47.4577C42.2214 47.1343 41.9676 46.7507 41.7953 46.3289C41.6231 45.9072 41.5358 45.4556 41.5384 45V17.3077C41.5384 16.3897 41.9031 15.5092 42.5522 14.8601C43.2014 14.2109 44.0819 13.8462 44.9999 13.8462C45.918 13.8462 46.7984 14.2109 47.4476 14.8601C48.0968 15.5092 48.4615 16.3897 48.4615 17.3077V43.5808L66.4961 61.5808C66.8205 61.9026 67.078 62.2855 67.2538 62.7073C67.4295 63.1291 67.52 63.5815 67.52 64.0385C67.52 64.4955 67.4295 64.9479 67.2538 65.3697C67.078 65.7915 66.8205 66.1744 66.4961 66.4962C66.1726 66.817 65.789 67.0708 65.3673 67.2431C64.9456 67.4154 64.4939 67.5027 64.0384 67.5Z" fill="#FFC581"/>
</g>
<defs>
<clipPath id="clip0_144_366">
<rect width="90" height="90" fill="white"/>
</clipPath>
</defs>
</svg>
