<svg width="100" height="90" viewBox="0 0 100 90" fill="none" xmlns="http://www.w3.org/2000/svg">
<g clip-path="url(#clip0_144_384)">
<path d="M51.4549 0.0751953C50.4719 0.0751953 49.5953 0.542846 49.0233 1.27375L48.4654 1.69565C37.694 -1.73764 25.4118 0.785473 16.8613 9.26499C9.27203 16.7913 6.41449 27.2331 8.28873 36.9549C8.18207 37.0522 8.07697 37.152 7.97355 37.2546L3.11582 42.0721C-0.85827 46.0131 -0.85827 52.4026 3.11582 56.3441C5.59721 58.805 9.04123 59.729 12.2458 59.1167C12.6369 60.9717 13.5583 62.7381 15.0101 64.1781C16.9266 66.0781 19.4173 67.0625 21.9283 67.13C21.9961 69.6205 22.9884 72.0911 24.9052 73.9924C26.8217 75.8931 29.3124 76.8768 31.8235 76.9443C31.8914 79.4348 32.8837 81.9054 34.8004 83.8061C38.5646 87.5394 44.5441 87.7366 48.5423 84.3973L51.2714 87.1037C55.2657 91.0657 61.7422 91.0657 65.7373 87.1037C67.6464 85.2101 68.6432 82.7556 68.7268 80.2759C71.2214 80.1969 73.6917 79.2132 75.5965 77.3247C77.5057 75.4317 78.4974 72.9746 78.5729 70.4956C81.0388 70.3973 83.4748 69.4149 85.3578 67.5476C86.8713 66.046 87.8087 64.1903 88.1701 62.2491C91.3331 62.8062 94.7109 61.8732 97.1549 59.4495C101.129 55.5087 101.129 49.1186 97.1549 45.1778L92.6681 40.728L93.5787 37.1902C95.4386 29.9666 94.5005 22.3173 90.9636 15.7576C85.7453 6.07934 75.6221 0.100255 64.6713 0.100255H56.9989C56.6688 0.0836131 56.3367 0.0751953 56.0028 0.0751953H51.4549ZM66.7614 23.9519L81.7741 38.84L81.7922 38.858L92.66 49.6352C94.1516 51.1143 94.1516 53.5123 92.66 54.9921C91.1683 56.4713 88.7499 56.4713 87.2582 54.9921L79.0117 46.8131C78.415 46.2219 77.6068 45.8904 76.7636 45.8904C75.9211 45.8904 75.1122 46.2219 74.5161 46.8131L74.4338 46.8953C73.1924 48.1264 73.1924 50.1222 74.4338 51.3534L80.8628 57.7288C82.3557 59.2092 82.3557 61.6091 80.8628 63.0896C79.501 64.4402 77.3621 64.5597 75.8667 63.443C74.5967 62.4939 72.8148 62.6224 71.6957 63.7431C70.5767 64.8637 70.4656 66.632 71.4349 67.8824C72.5857 69.366 72.4728 71.507 71.1016 72.8667C69.721 74.2359 67.5416 74.3394 66.0443 73.1732C64.7817 72.1894 62.978 72.2942 61.8396 73.416C60.7012 74.5386 60.5851 76.3262 61.5694 77.5843C62.7458 79.0879 62.6347 81.2648 61.2417 82.6463C59.7301 84.146 57.2785 84.146 55.7663 82.6463L53.0638 79.9662L54.0493 78.9889C58.0237 75.0475 58.0237 68.6579 54.0493 64.7165C52.1333 62.8165 49.6423 61.8321 47.1313 61.7646C47.0634 59.2741 46.0711 56.8035 44.1544 54.9028C42.2379 53.0021 39.7472 52.0184 37.2361 51.9509C37.1685 49.4598 36.1762 46.9891 34.2593 45.0885C31.7779 42.6276 28.3338 41.7032 25.1293 42.3155C24.7383 40.4609 23.8168 38.6944 22.365 37.2546C20.1567 35.0646 17.186 34.0916 14.3001 34.3354C13.3333 27.0153 15.6854 19.3465 21.3563 13.7227C26.9553 8.17021 34.5643 5.82604 41.8605 6.69015L32.7848 13.5531C27.8754 17.2656 26.9495 24.3126 30.7245 29.2344C34.4467 34.0876 41.3454 35.0483 46.1863 31.3877L56.0197 23.9519H66.7614ZM36.4794 18.7318L52.6544 6.50072H56.0028C56.255 6.50072 56.5052 6.5076 56.7536 6.52122C56.8086 6.52431 56.8641 6.52578 56.9197 6.52578H64.6713C73.437 6.52578 81.4283 11.3122 85.5069 18.8762C88.2668 23.9941 88.9895 29.9369 87.5459 35.5441L87.5291 35.6104L70.3052 18.4702C69.7191 17.866 68.9246 17.5264 68.0958 17.5264H54.9967C54.3321 17.5264 53.6848 17.7448 53.1493 18.1498L42.4916 26.209C40.3605 27.8205 37.2613 27.3889 35.6227 25.2524C34.0367 23.1846 34.4168 20.2915 36.4794 18.7318ZM39.2366 74.0515L39.2967 73.9924L44.1544 69.1752L44.2134 69.1161C45.7092 67.6954 48.0829 67.7153 49.5545 69.1746C51.0461 70.6537 51.0461 73.0517 49.5545 74.5309L44.6968 79.3487C43.2052 80.8279 40.7869 80.8279 39.2953 79.3487C37.8237 77.8889 37.8041 75.5345 39.2366 74.0515ZM39.7181 64.6574L39.6581 64.7165L34.8004 69.5344L34.7414 69.5929C33.2457 71.0135 30.8719 70.9943 29.4003 69.5344C27.9235 68.07 27.9088 65.7048 29.3562 64.2224L29.4015 64.1781L34.2593 59.3602L34.3032 59.3165C35.798 57.8817 38.1828 57.8965 39.6594 59.3608C41.1311 60.8201 41.1507 63.1744 39.7181 64.6574ZM29.7629 54.9028L24.9052 59.7207L24.8613 59.7644C23.3665 61.1992 20.9817 61.1844 19.5051 59.72C18.0135 58.2409 18.0135 55.8429 19.5051 54.3637L24.3629 49.5459C25.8544 48.0667 28.2727 48.0667 29.7643 49.5459C31.241 51.0102 31.2557 53.3761 29.8083 54.8585L29.7629 54.9028ZM17.87 47.0688L13.0123 51.886C11.5207 53.3658 9.1024 53.3658 7.61081 51.886C6.11928 50.4069 6.11928 48.0089 7.61081 46.5297L12.4686 41.7123C13.9601 40.2331 16.3784 40.2331 17.87 41.7123C19.3616 43.1915 19.3616 45.5897 17.87 47.0688Z" fill="#FFC581"/>
</g>
<defs>
<clipPath id="clip0_144_384">
<rect width="100" height="90" fill="white"/>
</clipPath>
</defs>
</svg>
