<svg width="20" height="20" viewBox="0 0 20 20" fill="none" xmlns="http://www.w3.org/2000/svg">
<path d="M19.91 15.941L19.8105 15.6411C19.5747 14.9403 18.8019 14.2094 18.092 14.0169L15.4644 13.2991C14.7518 13.1052 13.7354 13.3659 13.2141 13.8872L12.2631 14.8381C8.80707 13.9043 6.09701 11.1941 5.16441 7.73879L6.11542 6.78778C6.63675 6.26644 6.89738 5.25134 6.70352 4.53879L5.98703 1.90992C5.79317 1.19866 5.06096 0.425877 4.36152 0.192704L4.06158 0.0918566C3.3608 -0.141317 2.36138 0.0944972 1.84008 0.615794L0.417572 2.03961C0.163441 2.29239 0.00102071 3.01543 0.00102071 3.01807C-0.0487324 7.53441 1.72218 11.8857 4.91686 15.0804C8.1037 18.2673 12.4387 20.0356 16.9419 19.9976C16.9655 19.9976 17.7094 19.8378 17.9636 19.5849L19.3861 18.1624C19.9074 17.6412 20.1432 16.6418 19.91 15.941Z" fill="#381B00"/>
</svg>
