<svg width="20" height="18" viewBox="0 0 20 18" fill="none" xmlns="http://www.w3.org/2000/svg">
<path d="M0.350945 8.37408L4.94904 10.0886L6.74151 15.8557C6.81944 16.2454 7.28705 16.3233 7.59878 16.0895L10.1706 13.9853C10.4044 13.7515 10.7941 13.7515 11.1058 13.9853L15.7039 17.3364C16.0156 17.5702 16.4832 17.4144 16.5611 17.0247L19.9902 0.658656C20.0681 0.268988 19.6785 -0.120677 19.2888 0.0351906L0.350945 7.36095C-0.116656 7.51681 -0.116656 8.21821 0.350945 8.37408ZM6.50772 9.23135L15.548 3.69807C15.7039 3.62013 15.8597 3.85394 15.7039 3.93187L8.30018 10.868C8.06638 11.1018 7.83257 11.4135 7.83257 11.8032L7.59878 13.6736C7.59878 13.9074 7.20911 13.9853 7.13117 13.6736L6.19596 10.2445C5.96216 9.85482 6.11805 9.38722 6.50772 9.23135Z" fill="white"/>
</svg>
