<svg width="21" height="21" viewBox="0 0 21 21" fill="none" xmlns="http://www.w3.org/2000/svg">
<path d="M17.9268 3.06265C15.9512 1.0939 13.3171 0.000152588 10.5366 0.000152588C4.75609 0.000152588 0.0731696 4.66682 0.0731696 10.4272C0.0731696 12.2502 0.585366 14.0731 1.46341 15.6043L0 21.0002L5.56098 19.5418C7.09756 20.3439 8.78049 20.7814 10.5366 20.7814C16.3171 20.7814 21 16.1147 21 10.3543C20.9268 7.6564 19.9024 5.0314 17.9268 3.06265ZM15.5854 14.146C15.3659 14.7293 14.3415 15.3127 13.8293 15.3856C13.3902 15.4585 12.8049 15.4585 12.2195 15.3127C11.8537 15.1668 11.3415 15.021 10.7561 14.7293C8.12195 13.6356 6.43903 11.0106 6.29268 10.7918C6.14634 10.646 5.19512 9.4064 5.19512 8.0939C5.19512 6.7814 5.85366 6.19807 6.07317 5.9064C6.29268 5.61474 6.58536 5.61474 6.80488 5.61474C6.95122 5.61474 7.17073 5.61474 7.31707 5.61474C7.46341 5.61474 7.68293 5.54182 7.90244 6.05224C8.12195 6.56265 8.63414 7.87515 8.70731 7.94807C8.78049 8.0939 8.78049 8.23974 8.70731 8.38557C8.63414 8.5314 8.56097 8.67723 8.41463 8.82307C8.26829 8.9689 8.12195 9.18765 8.04878 9.26057C7.90244 9.4064 7.7561 9.55223 7.90244 9.77098C8.04878 10.0627 8.56097 10.8647 9.36585 11.5939C10.3902 12.4689 11.1951 12.7606 11.4878 12.9064C11.7805 13.0522 11.9268 12.9793 12.0732 12.8335C12.2195 12.6877 12.7317 12.1043 12.878 11.8127C13.0244 11.521 13.2439 11.5939 13.4634 11.6668C13.6829 11.7397 15 12.396 15.2195 12.5418C15.5122 12.6877 15.6585 12.7606 15.7317 12.8335C15.8049 13.0522 15.8049 13.5627 15.5854 14.146Z" fill="white"/>
</svg>
